<svg xmlns="http://www.w3.org/2000/svg" width="170.667" height="170.667" viewBox="0 0 128 128"><path d="M54.543 55.414c-2.977 0-5.328 2.664-5.328 5.918s2.402 5.922 5.328 5.922c2.98 0 5.328-2.668 5.328-5.922.055-3.254-2.348-5.918-5.328-5.918zm19.07 0c-2.977 0-5.328 2.664-5.328 5.918s2.402 5.922 5.328 5.922c2.977 0 5.328-2.668 5.328-5.922s-2.352-5.918-5.328-5.918zm25.391-44.746H28.996c-5.902 0-10.711 4.906-10.711 10.984v72.109c0 6.078 4.809 10.984 10.711 10.984h59.246l-2.769-9.867 6.688 6.348 6.32 5.973 11.234 10.133v-95.68c0-6.078-4.809-10.984-10.711-10.984zM78.836 80.32L75.391 76c6.844-1.973 9.457-6.348 9.457-6.348-2.144 1.441-4.18 2.453-6.012 3.148-2.609 1.121-5.117 1.867-7.574 2.293-5.016.961-9.613.691-13.531-.055a42.906 42.906 0 0 1-7.68-2.293 30.159 30.159 0 0 1-3.812-1.812c-.16-.105-.316-.16-.473-.266-.105-.055-.156-.109-.207-.16-.941-.535-1.465-.906-1.465-.906s2.508 4.266 9.145 6.293l-3.5 4.426c-11.547-.375-15.938-8.106-15.938-8.106 0-17.176 7.523-31.094 7.523-31.094 7.523-5.762 14.684-5.602 14.684-5.602l.52.641c-9.402 2.773-13.738 6.988-13.738 6.988s1.148-.641 3.082-1.547c5.59-2.508 10.031-3.203 11.859-3.363.313-.051.574-.105.887-.105a43.395 43.395 0 0 1 10.555-.105c4.965 0 10 2 15 5 0 0-4.129-4-13.008-6.773l.73-.855s7.156-.16 14.68 5.602c0 0 7.523 13.918 7.523 31.094 0 0-4.441 7.731-15.988 8.105z"/></svg>