<svg xmlns="http://www.w3.org/2000/svg" width="170.667" height="170.667" viewBox="0 0 128 128"><path d="M122.56 28.48c-3.559-6.176-7.559-7.312-14.91-7.746-7.664-.52-26.938-.734-43.633-.734-16.727 0-36.008.215-43.664.727-7.656.441-11.43 1.57-14.938 7.754C1.841 34.648.001 45.273.001 63.976v.062c0 18.625 1.84 29.328 5.414 35.434 3.508 6.176 7.273 7.297 14.93 7.816 7.664.445 26.945.711 43.672.711 16.695 0 35.969-.266 43.641-.703 7.672-.52 11.441-1.641 14.91-7.816 3.609-6.106 5.434-16.809 5.434-35.434v-.062c0-18.711-1.824-29.336-5.441-35.504zM48.001 88V40l40 24z"/></svg>